<svg width="539" height="151" viewBox="0 0 539 151" fill="none" xmlns="http://www.w3.org/2000/svg">
<rect x="274" y="24" width="101" height="14" fill="white"/>
<rect x="251" y="92" width="102" height="13" fill="white"/>
<rect x="252" y="113" width="125" height="6" rx="3" fill="white"/>
<rect x="272" y="125" width="85" height="5" rx="2.5" fill="white"/>
<rect x="274" y="58" width="81" height="13" fill="white"/>
<path d="M274.433 24C284.179 24 292.591 29.5318 296.513 37.5322H274.809C268.996 37.5322 264.283 42.0756 264.283 47.6807C264.283 53.1105 268.706 57.5444 274.267 57.8164L274.809 57.8301H296.513C292.591 65.8302 284.179 71.3613 274.433 71.3613C260.939 71.3613 250 60.7592 250 47.6807C250 34.6022 260.939 24 274.433 24Z" fill="white"/>
<path d="M352.617 57.8301C366.111 57.8302 377.05 68.4322 377.05 81.5107C377.05 94.5892 366.111 105.191 352.617 105.191C342.871 105.191 334.458 99.6596 330.537 91.6592H352.993V91.6494C358.424 91.4515 362.766 86.9898 362.766 81.5107C362.766 76.0316 358.424 71.569 352.993 71.3711V71.3613H330.537C334.459 63.3612 342.871 57.8301 352.617 57.8301Z" fill="white"/>
<path d="M389.84 108V60.384H396.944L397.712 67.872H398.096C399.76 65.248 401.936 63.168 404.624 61.632C407.312 60.032 410.544 59.232 414.32 59.232C417.968 59.232 421.168 60 423.92 61.536C426.672 63.008 428.784 65.312 430.256 68.448C431.792 71.52 432.56 75.424 432.56 80.16V108H424.496V81.024C424.496 76.096 423.44 72.384 421.328 69.888C419.216 67.392 416.176 66.144 412.208 66.144C409.456 66.144 406.992 66.816 404.816 68.16C402.704 69.504 401.008 71.456 399.728 74.016C398.512 76.512 397.904 79.616 397.904 83.328V108H389.84ZM455.843 109.152C452.067 109.152 448.899 108.48 446.339 107.136C443.779 105.792 441.859 104 440.579 101.76C439.363 99.52 438.755 97.088 438.755 94.464C438.755 91.2 439.587 88.448 441.251 86.208C442.979 83.968 445.379 82.272 448.451 81.12C451.587 79.904 455.267 79.296 459.491 79.296H472.355C472.355 76.16 471.875 73.568 470.915 71.52C469.955 69.472 468.579 67.968 466.787 67.008C464.995 65.984 462.851 65.472 460.355 65.472C457.219 65.472 454.499 66.272 452.195 67.872C449.891 69.472 448.483 71.936 447.971 75.264H439.715C440.099 71.808 441.219 68.896 443.075 66.528C444.995 64.16 447.427 62.368 450.371 61.152C453.379 59.872 456.707 59.232 460.355 59.232C464.899 59.232 468.643 60.064 471.587 61.728C474.595 63.328 476.803 65.6 478.211 68.544C479.683 71.424 480.419 74.816 480.419 78.72V108H473.699L472.931 99.84H472.547C471.651 101.376 470.595 102.72 469.379 103.872C468.227 105.024 466.947 105.984 465.539 106.752C464.131 107.52 462.595 108.096 460.931 108.48C459.331 108.928 457.635 109.152 455.843 109.152ZM457.283 102.336C459.715 102.336 461.859 101.888 463.715 100.992C465.571 100.032 467.139 98.752 468.419 97.152C469.699 95.552 470.659 93.76 471.299 91.776C472.003 89.728 472.355 87.648 472.355 85.536H460.163C457.027 85.536 454.499 85.92 452.579 86.688C450.659 87.392 449.283 88.384 448.451 89.664C447.619 90.944 447.203 92.416 447.203 94.08C447.203 95.744 447.587 97.216 448.355 98.496C449.187 99.712 450.339 100.672 451.811 101.376C453.347 102.016 455.171 102.336 457.283 102.336ZM505.221 108C502.341 108 499.845 107.552 497.733 106.656C495.621 105.76 493.989 104.256 492.837 102.144C491.749 99.968 491.205 97.056 491.205 93.408V66.144H482.949V60.384H491.205L492.165 48.96H499.269V60.384H513.285V66.144H499.269V93.408C499.269 96.736 499.877 98.976 501.093 100.128C502.309 101.216 504.453 101.76 507.525 101.76H512.517V108H505.221Z" fill="white"/>
<path d="M30.32 108V40.8H52.4C57.648 40.8 61.968 41.664 65.36 43.392C68.752 45.12 71.248 47.456 72.848 50.4C74.512 53.344 75.344 56.672 75.344 60.384C75.344 64.032 74.544 67.328 72.944 70.272C71.344 73.216 68.848 75.584 65.456 77.376C62.064 79.104 57.712 79.968 52.4 79.968H38.384V108H30.32ZM38.384 73.152H52.208C57.52 73.152 61.328 72 63.632 69.696C65.936 67.392 67.088 64.288 67.088 60.384C67.088 56.288 65.936 53.12 63.632 50.88C61.328 48.64 57.52 47.52 52.208 47.52H38.384V73.152ZM81.6013 108V40.8H89.6653V68.352H90.0493C91.9693 65.344 94.3053 63.072 97.0573 61.536C99.8733 60 102.881 59.232 106.081 59.232C109.729 59.232 112.929 60 115.681 61.536C118.433 63.008 120.545 65.312 122.017 68.448C123.553 71.52 124.321 75.424 124.321 80.16V108H116.353V81.024C116.353 76.096 115.329 72.384 113.281 69.888C111.297 67.392 108.321 66.144 104.353 66.144C101.601 66.144 99.1053 66.816 96.8653 68.16C94.6253 69.504 92.8653 71.456 91.5853 74.016C90.3053 76.512 89.6653 79.616 89.6653 83.328V108H81.6013ZM133.191 108V60.384H141.255V108H133.191ZM137.223 50.88C135.623 50.88 134.279 50.336 133.191 49.248C132.103 48.16 131.559 46.816 131.559 45.216C131.559 43.68 132.103 42.368 133.191 41.28C134.279 40.192 135.623 39.648 137.223 39.648C138.759 39.648 140.071 40.192 141.159 41.28C142.247 42.368 142.791 43.712 142.791 45.312C142.791 46.848 142.247 48.16 141.159 49.248C140.071 50.336 138.759 50.88 137.223 50.88ZM150.976 108V40.8H159.04V108H150.976ZM168.816 108V60.384H176.88V108H168.816ZM172.848 50.88C171.248 50.88 169.904 50.336 168.816 49.248C167.728 48.16 167.184 46.816 167.184 45.216C167.184 43.68 167.728 42.368 168.816 41.28C169.904 40.192 171.248 39.648 172.848 39.648C174.384 39.648 175.696 40.192 176.784 41.28C177.872 42.368 178.416 43.712 178.416 45.312C178.416 46.848 177.872 48.16 176.784 49.248C175.696 50.336 174.384 50.88 172.848 50.88ZM186.601 127.2V60.384H193.321L194.089 69.504H194.473C195.881 67.2 197.545 65.312 199.465 63.84C201.385 62.304 203.497 61.152 205.801 60.384C208.169 59.616 210.633 59.232 213.193 59.232C217.801 59.232 221.769 60.352 225.097 62.592C228.489 64.768 231.081 67.744 232.873 71.52C234.729 75.296 235.657 79.52 235.657 84.192C235.657 88.864 234.729 93.088 232.873 96.864C231.081 100.64 228.425 103.648 224.905 105.888C221.449 108.064 217.193 109.152 212.137 109.152C207.721 109.152 204.073 108.224 201.193 106.368C198.377 104.512 196.201 102.432 194.665 100.128V127.2H186.601ZM211.273 102.144C214.601 102.144 217.481 101.408 219.913 99.936C222.345 98.4 224.201 96.288 225.481 93.6C226.825 90.912 227.497 87.776 227.497 84.192C227.497 80.608 226.825 77.472 225.481 74.784C224.201 72.096 222.345 70.016 219.913 68.544C217.481 67.008 214.601 66.24 211.273 66.24C207.945 66.24 205.033 67.008 202.537 68.544C200.105 70.016 198.217 72.096 196.873 74.784C195.529 77.472 194.857 80.608 194.857 84.192C194.857 87.776 195.529 90.912 196.873 93.6C198.217 96.288 200.105 98.4 202.537 99.936C205.033 101.408 207.945 102.144 211.273 102.144Z" fill="white"/>
</svg>
