<svg width="306" height="151" viewBox="0 0 306 151" fill="none" xmlns="http://www.w3.org/2000/svg">
<rect x="45" y="22" width="101" height="14" fill="black"/>
<rect x="22" y="90" width="102" height="13" fill="black"/>
<rect x="23" y="111" width="125" height="6" rx="3" fill="black"/>
<rect x="43" y="123" width="85" height="5" rx="2.5" fill="black"/>
<rect x="45" y="56" width="81" height="13" fill="black"/>
<path d="M45.4326 22C55.179 22 63.5913 27.5318 67.5127 35.5322H45.8086C39.996 35.5322 35.2833 40.0756 35.2832 45.6807C35.2832 51.1105 39.7057 55.5444 45.2666 55.8164L45.8086 55.8301H67.5127C63.5912 63.8302 55.1788 69.3613 45.4326 69.3613C31.9389 69.3613 21 58.7592 21 45.6807C21.0001 32.6022 31.9389 22 45.4326 22Z" fill="black"/>
<path d="M123.617 55.8301C137.111 55.8302 148.05 66.4322 148.05 79.5107C148.05 92.5892 137.111 103.191 123.617 103.191C113.871 103.191 105.458 97.6596 101.537 89.6592H123.993V89.6494C129.424 89.4515 133.766 84.9898 133.766 79.5107C133.766 74.0316 129.424 69.569 123.993 69.3711V69.3613H101.537C105.459 61.3612 113.871 55.8301 123.617 55.8301Z" fill="black"/>
<path d="M160.84 106V58.384H167.944L168.712 65.872H169.096C170.76 63.248 172.936 61.168 175.624 59.632C178.312 58.032 181.544 57.232 185.32 57.232C188.968 57.232 192.168 58 194.92 59.536C197.672 61.008 199.784 63.312 201.256 66.448C202.792 69.52 203.56 73.424 203.56 78.16V106H195.496V79.024C195.496 74.096 194.44 70.384 192.328 67.888C190.216 65.392 187.176 64.144 183.208 64.144C180.456 64.144 177.992 64.816 175.816 66.16C173.704 67.504 172.008 69.456 170.728 72.016C169.512 74.512 168.904 77.616 168.904 81.328V106H160.84ZM226.843 107.152C223.067 107.152 219.899 106.48 217.339 105.136C214.779 103.792 212.859 102 211.579 99.76C210.363 97.52 209.755 95.088 209.755 92.464C209.755 89.2 210.587 86.448 212.251 84.208C213.979 81.968 216.379 80.272 219.451 79.12C222.587 77.904 226.267 77.296 230.491 77.296H243.355C243.355 74.16 242.875 71.568 241.915 69.52C240.955 67.472 239.579 65.968 237.787 65.008C235.995 63.984 233.851 63.472 231.355 63.472C228.219 63.472 225.499 64.272 223.195 65.872C220.891 67.472 219.483 69.936 218.971 73.264H210.715C211.099 69.808 212.219 66.896 214.075 64.528C215.995 62.16 218.427 60.368 221.371 59.152C224.379 57.872 227.707 57.232 231.355 57.232C235.899 57.232 239.643 58.064 242.587 59.728C245.595 61.328 247.803 63.6 249.211 66.544C250.683 69.424 251.419 72.816 251.419 76.72V106H244.699L243.931 97.84H243.547C242.651 99.376 241.595 100.72 240.379 101.872C239.227 103.024 237.947 103.984 236.539 104.752C235.131 105.52 233.595 106.096 231.931 106.48C230.331 106.928 228.635 107.152 226.843 107.152ZM228.283 100.336C230.715 100.336 232.859 99.888 234.715 98.992C236.571 98.032 238.139 96.752 239.419 95.152C240.699 93.552 241.659 91.76 242.299 89.776C243.003 87.728 243.355 85.648 243.355 83.536H231.163C228.027 83.536 225.499 83.92 223.579 84.688C221.659 85.392 220.283 86.384 219.451 87.664C218.619 88.944 218.203 90.416 218.203 92.08C218.203 93.744 218.587 95.216 219.355 96.496C220.187 97.712 221.339 98.672 222.811 99.376C224.347 100.016 226.171 100.336 228.283 100.336ZM276.221 106C273.341 106 270.845 105.552 268.733 104.656C266.621 103.76 264.989 102.256 263.837 100.144C262.749 97.968 262.205 95.056 262.205 91.408V64.144H253.949V58.384H262.205L263.165 46.96H270.269V58.384H284.285V64.144H270.269V91.408C270.269 94.736 270.877 96.976 272.093 98.128C273.309 99.216 275.453 99.76 278.525 99.76H283.517V106H276.221Z" fill="black"/>
</svg>
